# xmcd CD database file
#
# Track frame offsets:
#	150
#	19390
#	35725
#	54835
#	67270
#	84392
#	101752
#	119950
#	136160
#	152755
#	165805
#	182657
#	198545
#	216142
#	231992
#	249800
#	266972
#	280707
#
# Disc length: 3944 seconds
#
# Revision: 0
# Processed by: cddbd v1.4PL0 Copyright (c) Steve Scherf et al.
# Submitted via: CDex 1.50Beta7
#
DISCID=060f6612
DTITLE=Ella Fitzgerald - The Collection
DYEAR=1900
DGENRE=Blues
TTITLE0=I'm Just a Lucky So and So
TTITLE1=It's Only a Paper Moon
TTITLE2=Let's Call The Whole Thing Off
TTITLE3=Hooray for Love
TTITLE4=Imagination
TTITLE5=Don't Be That Way
TTITLE6=Our Love is Here to Stay
TTITLE7=You're The Top
TTITLE8=Begin the Beguine
TTITLE9=Love me or Leave me
TTITLE10=Body and Soul
TTITLE11=Georgia on my Mind
TTITLE12=The Man I Love
TTITLE13=Black Coffee
TTITLE14=Can't Help Lovin' Dat Man
TTITLE15=Cheek To Cheek
TTITLE16=Isn't it Romantic?
TTITLE17=We'll Be Together Again
EXTD=
EXTT0=
EXTT1=
EXTT2=
EXTT3=
EXTT4=
EXTT5=
EXTT6=
EXTT7=
EXTT8=
EXTT9=
EXTT10=
EXTT11=
EXTT12=
EXTT13=
EXTT14=
EXTT15=
EXTT16=
EXTT17=
PLAYORDER=
